<svg id="Layer_3" data-name="Layer 3" xmlns="http://www.w3.org/2000/svg" xmlns:xlink="http://www.w3.org/1999/xlink" viewBox="0 0 911.57 1024"><defs><style>.cls-1{fill:url(#linear-gradient);}.cls-2{fill:url(#linear-gradient-2);}</style><linearGradient id="linear-gradient" x1="369.07" y1="695.22" x2="649.11" y2="339.22" gradientUnits="userSpaceOnUse"><stop offset="0" stop-color="#fff"/><stop offset="1" stop-color="#fff"/></linearGradient><linearGradient id="linear-gradient-2" x1="203.85" y1="903.73" x2="807.6" y2="136.22" xlink:href="#linear-gradient"/></defs><title>合约总数icon</title><path class="cls-1" d="M618.35,325.13H405.65a45.63,45.63,0,0,0-45.58,45.58V656.33a45.63,45.63,0,0,0,45.58,45.58h212.7a45.63,45.63,0,0,0,45.58-45.58V370.71A45.63,45.63,0,0,0,618.35,325.13Zm-197.51,79H530.23v36.46H420.84ZM603.16,622.91H420.84V586.45H603.16Zm0-91.16H420.84V495.29H603.16Z" transform="translate(-56.22)"/><path class="cls-2" d="M922.19,222.64,557.57,12.2a91.16,91.16,0,0,0-91.13,0L101.81,222.64a91.16,91.16,0,0,0-45.59,79V722.41a91.16,91.16,0,0,0,45.59,79l364.63,210.44a91.15,91.15,0,0,0,91.13,0L922.19,801.36a91.16,91.16,0,0,0,45.59-79V301.59A91.16,91.16,0,0,0,922.19,222.64ZM694.31,656.33a76.05,76.05,0,0,1-76,76H405.65a76.05,76.05,0,0,1-76-76V370.71a76.05,76.05,0,0,1,76-76h212.7a76.05,76.05,0,0,1,76,76Z" transform="translate(-56.22)"/></svg>