<svg id="Layer_7" data-name="Layer 7" xmlns="http://www.w3.org/2000/svg" xmlns:xlink="http://www.w3.org/1999/xlink" viewBox="0 0 911.57 1024"><defs><style>.cls-1{fill:url(#linear-gradient);}</style><linearGradient id="linear-gradient" x1="203.85" y1="903.73" x2="807.6" y2="136.22" gradientUnits="userSpaceOnUse"><stop offset="0" stop-color="#fff"/><stop offset="1" stop-color="#fff"/></linearGradient></defs><title>账户总数icon</title><path class="cls-1" d="M922.19,222.64,557.57,12.2a91.16,91.16,0,0,0-91.13,0L101.81,222.64a91.16,91.16,0,0,0-45.59,79V722.41a91.16,91.16,0,0,0,45.59,79l364.63,210.44a91.15,91.15,0,0,0,91.13,0L922.19,801.36a91.16,91.16,0,0,0,45.59-79V301.59A91.16,91.16,0,0,0,922.19,222.64ZM377.27,545.27,481.71,440.84a14.57,14.57,0,0,1,20.61,0l91.37,91.37L703.46,422.43A14.57,14.57,0,0,1,724.07,443L604,563.12a14.57,14.57,0,0,1-20.61,0L492,471.75,397.9,565.86a14.52,14.52,0,0,1-10.3,4.27h0a14.57,14.57,0,0,1-10.3-24.87ZM725.29,729H324.07a40,40,0,0,1-40-40V321.47a14.57,14.57,0,0,1,29.14,0V689a10.83,10.83,0,0,0,10.82,10.82H725.29a14.57,14.57,0,0,1,0,29.14Z" transform="translate(-56.22 0)"/></svg>