<svg xmlns="http://www.w3.org/2000/svg" viewBox="0 0 1024 1024"><defs><style>.cls-1{fill:#aab1bb;}</style></defs><title>菜单-合约-icon</title><g id="Layer_4" data-name="Layer 4"><polygon class="cls-1" points="640 832 736 768 832 832 832 576 640 576 640 832"/><path class="cls-1" d="M864,0H160C71.78,0,0,71.78,0,160V864c0,88.25,71.78,160,160,160H864c88.25,0,160-71.75,160-160V160C1024,71.78,952.25,0,864,0Zm96,864a96.1,96.1,0,0,1-96,96H160a96.1,96.1,0,0,1-96-96V160a96.1,96.1,0,0,1,96-96H864a96.1,96.1,0,0,1,96,96Z"/><rect class="cls-1" x="352" y="224" width="320" height="64"/><rect class="cls-1" x="224" y="608" width="256" height="64"/><rect class="cls-1" x="224" y="416" width="576" height="64"/></g></svg>