<svg xmlns="http://www.w3.org/2000/svg" viewBox="0 0 988.5 1024"><defs><style>.cls-1{fill:#aab1bb;}</style></defs><title>菜单-用户-icon</title><g id="Layer_4" data-name="Layer 4"><path class="cls-1" d="M672.9,534.73c76-52.63,125.93-141.43,125.93-242.16C798.83,131,670.41,0,512,0S225.16,131,225.16,292.57c0,100.73,50,189.53,125.93,242.16C172.13,584,17.75,709,17.75,858.89c0,220.14,988.5,220.14,988.5,0C1006.25,709,851.86,584,672.9,534.73Zm-376-242.16c0-121.19,96.32-219.43,215.13-219.43s215.12,98.24,215.12,219.43S630.81,512,512,512,296.87,413.76,296.87,292.57ZM89.46,858.89c0-148.81,222.79-273.75,422.54-273.75S934.54,710.08,934.54,858.89C934.54,981.51,89.46,981.51,89.46,858.89Z" transform="translate(-17.75 0)"/></g></svg>