<svg xmlns="http://www.w3.org/2000/svg" viewBox="0 0 1023.93 1016.06"><defs><style>.cls-1{fill:#aab1bb;}</style></defs><title>菜单-数据-icon</title><g id="Layer_4" data-name="Layer 4"><g id="Shape"><path class="cls-1" d="M988.89,949.88H96.23a26.06,26.06,0,0,1-26-26V39A35.08,35.08,0,0,0,0,39V923.84A96.3,96.3,0,0,0,96.23,1020H988.89a35.08,35.08,0,1,0,0-70.15Z" transform="translate(-0.03 -3.97)"/><path class="cls-1" d="M176,637.62a35,35,0,0,0,24.8-10.28L427.34,400.81,647.27,620.74a35.08,35.08,0,0,0,49.62,0l289-289.06a35.08,35.08,0,0,0-49.61-49.61L672.09,546.32,452.15,326.38a35.08,35.08,0,0,0-49.61,0L151.16,577.77A35.08,35.08,0,0,0,176,637.65Z" transform="translate(-0.03 -3.97)"/></g></g></svg>