<svg id="Layer_6" data-name="Layer 6" xmlns="http://www.w3.org/2000/svg" xmlns:xlink="http://www.w3.org/1999/xlink" viewBox="0 0 911.57 1024"><defs><style>.cls-1{fill:url(#linear-gradient);}.cls-2{fill:url(#linear-gradient-2);}.cls-3{fill:url(#linear-gradient-3);}.cls-4{fill:url(#linear-gradient-4);}</style><linearGradient id="linear-gradient" x1="338.03" y1="709.19" x2="498.7" y2="504.94" gradientUnits="userSpaceOnUse"><stop offset="0" stop-color="#fff"/><stop offset="1" stop-color="#fff"/></linearGradient><linearGradient id="linear-gradient-2" x1="203.85" y1="903.73" x2="807.6" y2="136.22" xlink:href="#linear-gradient"/><linearGradient id="linear-gradient-3" x1="472.64" y1="567.31" x2="560.39" y2="455.75" xlink:href="#linear-gradient"/><linearGradient id="linear-gradient-4" x1="532.81" y1="520.05" x2="693.48" y2="315.8" xlink:href="#linear-gradient"/></defs><title>区块高度 icon</title><g id="Page-1"><g id="_1-1-1-1-摘要" data-name="1-1-1-1-摘要"><path class="cls-1" d="M425.18,538V445.8H351.39a36.9,36.9,0,0,0-36.9,36.9V667.18a36.9,36.9,0,0,0,36.9,36.9H535.87a36.9,36.9,0,0,0,36.9-36.9V611.84H499A73.79,73.79,0,0,1,425.18,538Z" transform="translate(-56.22)"/><path class="cls-2" d="M922.19,222.64,557.57,12.2a91.16,91.16,0,0,0-91.13,0L101.81,222.64a91.16,91.16,0,0,0-45.59,79V722.41a91.16,91.16,0,0,0,45.59,79l364.63,210.44a91.15,91.15,0,0,0,91.13,0L922.19,801.36a91.16,91.16,0,0,0,45.59-79V301.59A91.16,91.16,0,0,0,922.19,222.64ZM757.26,538a73.79,73.79,0,0,1-73.79,73.79H609.67v55.35A73.79,73.79,0,0,1,535.87,741H351.39a73.79,73.79,0,0,1-73.79-73.79V482.7a73.79,73.79,0,0,1,73.79-73.79h73.79V353.56A73.79,73.79,0,0,1,499,279.77H683.46a73.79,73.79,0,0,1,73.79,73.79Z" transform="translate(-56.22)"/><path class="cls-3" d="M535.87,445.8H462.08V538a36.9,36.9,0,0,0,36.9,36.9h73.79V482.7A36.9,36.9,0,0,0,535.87,445.8Z" transform="translate(-56.22)"/><path class="cls-4" d="M683.46,316.66H499a36.9,36.9,0,0,0-36.9,36.9v55.35h73.79a73.79,73.79,0,0,1,73.79,73.79v92.24h73.79a36.9,36.9,0,0,0,36.9-36.9V353.56A36.9,36.9,0,0,0,683.46,316.66Z" transform="translate(-56.22)"/></g></g></svg>