<svg id="Layer_5" data-name="Layer 5" xmlns="http://www.w3.org/2000/svg" xmlns:xlink="http://www.w3.org/1999/xlink" viewBox="0 0 911.57 1024"><defs><style>.cls-1{fill:url(#linear-gradient);}</style><linearGradient id="linear-gradient" x1="203.85" y1="903.73" x2="807.6" y2="136.22" gradientUnits="userSpaceOnUse"><stop offset="0" stop-color="#fff"/><stop offset="1" stop-color="#fff"/></linearGradient></defs><title>交易总数icon</title><g id="Page-1"><g id="_1-1-1-1-摘要" data-name="1-1-1-1-摘要"><path class="cls-1" d="M922.19,222.64,557.57,12.2a91.16,91.16,0,0,0-91.13,0L101.81,222.64a91.16,91.16,0,0,0-45.59,79V722.41a91.16,91.16,0,0,0,45.59,79l364.63,210.44a91.15,91.15,0,0,0,91.13,0L922.19,801.36a91.16,91.16,0,0,0,45.59-79V301.59A91.16,91.16,0,0,0,922.19,222.64ZM312.54,580.81a15.19,15.19,0,0,1,0-21.49l222-222H407.17a15.19,15.19,0,0,1,0-30.39H571.25A15.21,15.21,0,0,1,582,332.83l-248,248A15.19,15.19,0,0,1,312.54,580.81ZM711.46,467.72l-222,222h127.4a15.19,15.19,0,0,1,0,30.39H452.75c-.05,0-.1,0-.15,0a15.14,15.14,0,0,1-15-15s0-.08,0-.12,0-.08,0-.12A15.25,15.25,0,0,1,442,694.21l248-248a15.19,15.19,0,0,1,21.49,21.49Z" transform="translate(-56.22)"/></g></g></svg>