<?xml version="1.0" encoding="UTF-8"?>
<svg width="60px" height="69px" viewBox="0 0 60 69" version="1.1" xmlns="http://www.w3.org/2000/svg" xmlns:xlink="http://www.w3.org/1999/xlink">
    <!-- Generator: Sketch 49.3 (51167) - http://www.bohemiancoding.com/sketch -->
    <title>用户总数 icon</title>
    <desc>Created with Sketch.</desc>
    <defs>
        <linearGradient x1="16.650396%" y1="10.1623052%" x2="79.5569605%" y2="90.1306636%" id="linearGradient-1">
            <stop stop-color="#FFFFFF" offset="0%"></stop>
            <stop stop-color="#FFFFFF" offset="100%"></stop>
        </linearGradient>
    </defs>
    <g id="Page-1" stroke="none" stroke-width="1" fill="none" fill-rule="evenodd">
        <g id="1-1-1-1-摘要" transform="translate(-1154.000000, -203.000000)" fill="url(#linearGradient-1)">
            <g id="用户总数-icon" transform="translate(1154.000000, 203.000000)">
                <path d="M32.9991399,1.60311649 L56.9991399,15.4542269 C58.856031,16.5258937 60,18.5069274 60,20.6508758 L60,48.3491242 C60,50.4930726 58.856031,52.4741063 56.9991399,53.5457731 L32.9991399,67.3968835 C31.1431706,68.4680183 28.8568294,68.4680183 27.0008601,67.3968835 L3.0008601,53.5457731 C1.14396896,52.4741063 2.30926389e-14,50.4930726 1.95399252e-14,48.3491242 L0,20.6508758 C0,18.5069274 1.14396896,16.5258937 3.0008601,15.4542269 L27.0008601,1.60311649 C28.8568294,0.531981705 31.1431706,0.531981705 32.9991399,1.60311649 Z M24.532696,35.3972206 C19.335589,37.0550242 15.6235294,41.1268741 15.6235294,45.9823376 C15.6235294,53.2058875 43.8588235,53.2058875 43.8588235,45.9823376 C43.8588235,41.1268741 40.146764,37.0550242 34.9496569,35.3972206 C37.4833535,33.6769581 39.1529412,30.7373552 39.1529412,27.4 C39.1529412,22.0980664 34.9391506,17.8 29.7411765,17.8 C24.5432024,17.8 20.3294118,22.0980664 20.3294118,27.4 C20.3294118,30.7373552 21.9989994,33.6769581 24.532696,35.3972206 Z" id="Combined-Shape"></path>
                <g id="Group-11" transform="translate(17.600000, 19.800000)">
                    <path d="M12.1411765,14.8 C16.0396571,14.8 19.2,11.5764502 19.2,7.6 C19.2,3.6235498 16.0396571,0.4 12.1411765,0.4 C8.24269588,0.4 5.08235294,3.6235498 5.08235294,7.6 C5.08235294,11.5764502 8.24269588,14.8 12.1411765,14.8 Z" id="Oval-3"></path>
                    <path d="M23.9058824,26.1823376 C23.9058824,21.2995621 18.6955703,17.2 12.1411765,17.2 C5.58678261,17.2 0.376470588,21.2995621 0.376470588,26.1823376 C0.376470588,30.2058875 23.9058824,30.2058875 23.9058824,26.1823376 Z" id="Oval-3"></path>
                </g>
            </g>
        </g>
    </g>
</svg>